<?xml version="1.0" encoding="UTF-8"?>
<svg width="800" height="600" viewBox="0 0 800 600" fill="none" xmlns="http://www.w3.org/2000/svg">
  <defs>
    <linearGradient id="sdkGradient" x1="0%" y1="0%" x2="100%" y2="100%">
      <stop offset="0%" stop-color="currentColor" stop-opacity="0.2" />
      <stop offset="100%" stop-color="currentColor" stop-opacity="0.05" />
    </linearGradient>
    <filter id="sdkBlur" x="-50%" y="-50%" width="200%" height="200%">
      <feGaussianBlur in="SourceGraphic" stdDeviation="25" />
    </filter>
    <pattern id="grid" width="20" height="20" patternUnits="userSpaceOnUse">
      <path d="M0 0h20v20H0z" fill="none"/>
      <path d="M20 0v20M0 20h20" stroke="currentColor" stroke-opacity="0.1" stroke-width="0.5"/>
    </pattern>
  </defs>
  
  <!-- Code-like background -->
  <rect x="100" y="100" width="600" height="400" fill="url(#grid)" opacity="0.3" />
  
  <!-- Code brackets -->
  <g opacity="0.7" fill="none" stroke="currentColor" stroke-width="3">
    <path d="M200 150l-50 150 50 150" />
    <path d="M600 150l50 150-50 150" />
  </g>
  
  <!-- Code lines -->
  <g opacity="0.5" stroke="currentColor" stroke-width="1.5">
    <path d="M250 200h300" />
    <path d="M250 240h200" />
    <path d="M250 280h250" />
    <path d="M250 320h150" />
    <path d="M250 360h200" />
    <path d="M250 400h300" />
  </g>
  
  <!-- Token icons -->
  <g opacity="0.8">
    <circle cx="180" cy="200" r="15" fill="url(#sdkGradient)" />
    <circle cx="180" cy="280" r="15" fill="url(#sdkGradient)" />
    <circle cx="180" cy="360" r="15" fill="url(#sdkGradient)" />
    
    <circle cx="620" cy="200" r="15" fill="url(#sdkGradient)" />
    <circle cx="620" cy="280" r="15" fill="url(#sdkGradient)" />
    <circle cx="620" cy="360" r="15" fill="url(#sdkGradient)" />
  </g>
  
  <!-- Central SDK element -->
  <g opacity="0.9">
    <rect x="300" y="250" width="200" height="100" rx="10" fill="url(#sdkGradient)" />
    <rect x="300" y="250" width="200" height="100" rx="10" stroke="currentColor" stroke-opacity="0.4" stroke-width="2" fill="none" />
    <text x="400" y="305" text-anchor="middle" font-family="monospace" font-size="20" font-weight="bold" fill="currentColor">Tokenkit SDK</text>
  </g>
  
  <!-- Connection dots -->
  <g fill="currentColor" opacity="0.6">
    <circle cx="250" cy="200" r="4" />
    <circle cx="250" cy="240" r="4" />
    <circle cx="250" cy="280" r="4" />
    <circle cx="250" cy="320" r="4" />
    <circle cx="250" cy="360" r="4" />
    <circle cx="250" cy="400" r="4" />
    
    <circle cx="550" cy="200" r="4" />
    <circle cx="450" cy="240" r="4" />
    <circle cx="500" cy="280" r="4" />
    <circle cx="400" cy="320" r="4" />
    <circle cx="450" cy="360" r="4" />
    <circle cx="550" cy="400" r="4" />
  </g>
  
  <!-- Subtle background glow -->
  <circle cx="400" cy="300" r="150" fill="url(#sdkGradient)" filter="url(#sdkBlur)" opacity="0.3" />
</svg>
