<svg width="64" height="65" viewBox="0 0 64 65" fill="none" xmlns="http://www.w3.org/2000/svg">
<rect y="0.879883" width="64" height="64" rx="16" fill="white" fill-opacity="0.2"/>
<rect y="0.879883" width="64" height="64" rx="16" fill="url(#paint0_radial_83_9599)"/>
<path d="M29.4758 29.2659L20.0958 39.3239C19.7115 39.7474 19.4985 40.2989 19.4985 40.8709C19.4985 41.4428 19.7115 41.9943 20.0958 42.4179L22.2618 44.7379C22.4441 44.9398 22.6667 45.1012 22.9153 45.2117C23.1638 45.3221 23.4328 45.3792 23.7048 45.3792C23.9768 45.3792 24.2458 45.3221 24.4944 45.2117C24.743 45.1012 24.9656 44.9398 25.1478 44.7379L34.5238 34.6819M29.4758 29.2659L30.1958 28.4919C30.5802 28.0683 30.7931 27.5168 30.7931 26.9449C30.7931 26.3729 30.5802 25.8214 30.1958 25.3979L28.0318 23.0779L28.7518 22.3019C31.1438 19.7399 35.0198 19.7399 37.4118 22.3019L43.9018 29.2659C44.6998 30.1199 44.6998 31.5059 43.9018 32.3599L41.7398 34.6799C41.5576 34.8815 41.3351 35.0426 41.0867 35.1529C40.8383 35.2631 40.5696 35.3201 40.2978 35.3201C40.0261 35.3201 39.7573 35.2631 39.509 35.1529C39.2606 35.0426 39.0381 34.8815 38.8558 34.6799L38.1338 33.9079C37.9516 33.706 37.729 33.5446 37.4804 33.4341C37.2318 33.3236 36.9628 33.2665 36.6908 33.2665C36.4188 33.2665 36.1498 33.3236 35.9013 33.4341C35.6527 33.5446 35.4301 33.706 35.2478 33.9079L34.5278 34.6819M29.4758 29.2659L34.5238 34.6799" stroke="white" stroke-width="3" stroke-linecap="round" stroke-linejoin="round"/>
<defs>
<radialGradient id="paint0_radial_83_9599" cx="0" cy="0" r="1" gradientUnits="userSpaceOnUse" gradientTransform="translate(32 -3167.12) scale(64)">
<stop stop-color="white" stop-opacity="0.3"/>
<stop offset="1" stop-color="white" stop-opacity="0"/>
</radialGradient>
</defs>
</svg>