<svg width="105" height="20" viewBox="0 0 105 20" fill="none" xmlns="http://www.w3.org/2000/svg">
<path d="M13.056 2.248V4.96H8.592V19H5.232V4.96H0.768V2.248H13.056ZM21.4116 19.216C20.1316 19.216 18.9796 18.936 17.9556 18.376C16.9316 17.8 16.1236 16.992 15.5316 15.952C14.9556 14.912 14.6676 13.712 14.6676 12.352C14.6676 10.992 14.9636 9.792 15.5556 8.752C16.1636 7.712 16.9876 6.912 18.0276 6.352C19.0676 5.776 20.2276 5.488 21.5076 5.488C22.7876 5.488 23.9476 5.776 24.9876 6.352C26.0276 6.912 26.8436 7.712 27.4356 8.752C28.0436 9.792 28.3476 10.992 28.3476 12.352C28.3476 13.712 28.0356 14.912 27.4116 15.952C26.8036 16.992 25.9716 17.8 24.9156 18.376C23.8756 18.936 22.7076 19.216 21.4116 19.216ZM21.4116 16.288C22.0196 16.288 22.5876 16.144 23.1156 15.856C23.6596 15.552 24.0916 15.104 24.4116 14.512C24.7316 13.92 24.8916 13.2 24.8916 12.352C24.8916 11.088 24.5556 10.12 23.8836 9.448C23.2276 8.76 22.4196 8.416 21.4596 8.416C20.4996 8.416 19.6916 8.76 19.0356 9.448C18.3956 10.12 18.0756 11.088 18.0756 12.352C18.0756 13.616 18.3876 14.592 19.0116 15.28C19.6516 15.952 20.4516 16.288 21.4116 16.288ZM38.6843 19L34.1723 13.336V19H30.8123V1.24H34.1723V11.344L38.6363 5.704H43.0043L37.1483 12.376L43.0523 19H38.6843ZM57.1879 12.064C57.1879 12.544 57.1559 12.976 57.0919 13.36H47.3719C47.4519 14.32 47.7879 15.072 48.3799 15.616C48.9719 16.16 49.6999 16.432 50.5639 16.432C51.8119 16.432 52.6999 15.896 53.2279 14.824H56.8519C56.4679 16.104 55.7319 17.16 54.6439 17.992C53.5559 18.808 52.2199 19.216 50.6359 19.216C49.3559 19.216 48.2039 18.936 47.1799 18.376C46.1719 17.8 45.3799 16.992 44.8039 15.952C44.2439 14.912 43.9639 13.712 43.9639 12.352C43.9639 10.976 44.2439 9.768 44.8039 8.728C45.3639 7.688 46.1479 6.888 47.1559 6.328C48.1639 5.768 49.3239 5.488 50.6359 5.488C51.8999 5.488 53.0279 5.76 54.0199 6.304C55.0279 6.848 55.8039 7.624 56.3479 8.632C56.9079 9.624 57.1879 10.768 57.1879 12.064ZM53.7079 11.104C53.6919 10.24 53.3799 9.552 52.7719 9.04C52.1639 8.512 51.4199 8.248 50.5399 8.248C49.7079 8.248 49.0039 8.504 48.4279 9.016C47.8679 9.512 47.5239 10.208 47.3959 11.104H53.7079ZM67.0084 5.512C68.5924 5.512 69.8724 6.016 70.8484 7.024C71.8244 8.016 72.3124 9.408 72.3124 11.2V19H68.9524V11.656C68.9524 10.6 68.6884 9.792 68.1604 9.232C67.6324 8.656 66.9124 8.368 66.0004 8.368C65.0724 8.368 64.3364 8.656 63.7924 9.232C63.2644 9.792 63.0004 10.6 63.0004 11.656V19H59.6404V5.704H63.0004V7.36C63.4484 6.784 64.0164 6.336 64.7044 6.016C65.4084 5.68 66.1764 5.512 67.0084 5.512ZM84.9636 19L78.8676 11.536V19H75.5076V2.248H78.8676V9.76L84.9636 2.248H89.0196L82.1076 10.552L89.2116 19H84.9636ZM93.1256 4.12C92.5336 4.12 92.0376 3.936 91.6376 3.568C91.2536 3.184 91.0616 2.712 91.0616 2.152C91.0616 1.592 91.2536 1.128 91.6376 0.759999C92.0376 0.375999 92.5336 0.183999 93.1256 0.183999C93.7176 0.183999 94.2056 0.375999 94.5896 0.759999C94.9896 1.128 95.1896 1.592 95.1896 2.152C95.1896 2.712 94.9896 3.184 94.5896 3.568C94.2056 3.936 93.7176 4.12 93.1256 4.12ZM94.7816 5.704V19H91.4216V5.704H94.7816ZM102.013 8.464V14.896C102.013 15.344 102.117 15.672 102.325 15.88C102.549 16.072 102.917 16.168 103.429 16.168H104.989V19H102.877C100.045 19 98.6293 17.624 98.6293 14.872V8.464H97.0453V5.704H98.6293V2.416H102.013V5.704H104.989V8.464H102.013Z" fill="white"/>
</svg>
