<svg width="64" height="65" viewBox="0 0 64 65" fill="none" xmlns="http://www.w3.org/2000/svg">
<rect y="0.5" width="64" height="64" rx="16" fill="white" fill-opacity="0.15"/>
<rect y="0.5" width="64" height="64" rx="16" fill="url(#paint0_radial_46_8754)"/>
<path d="M41.0963 24.7363C38.6759 22.3395 35.4063 20.9965 32 21H31.8663C28.4417 21.0352 25.1693 22.4204 22.7602 24.8546C20.3511 27.2887 18.9998 30.5752 19 34C19 39.375 22.3225 43.8825 27.67 45.7713C28.2731 45.9839 28.9185 46.0488 29.5519 45.9606C30.1853 45.8724 30.7883 45.6335 31.3104 45.2641C31.8324 44.8948 32.2583 44.4056 32.5523 43.8376C32.8463 43.2697 32.9998 42.6395 33 42C33 41.4696 33.2107 40.9609 33.5858 40.5858C33.9609 40.2107 34.4696 40 35 40H40.7763C41.6836 40.0044 42.5652 39.6983 43.2746 39.1326C43.984 38.5669 44.4786 37.7756 44.6763 36.89C44.8998 35.9059 45.0084 34.8992 45 33.89C44.9873 32.1818 44.6357 30.4932 43.9656 28.9219C43.2955 27.3506 42.3202 25.9279 41.0963 24.7363ZM42.7213 36.45C42.6219 36.8912 42.375 37.2853 42.0214 37.5671C41.6677 37.8489 41.2285 38.0017 40.7763 38H35C33.9391 38 32.9217 38.4214 32.1716 39.1716C31.4214 39.9217 31 40.9391 31 42C30.9995 42.3195 30.9226 42.6342 30.7755 42.9178C30.6285 43.2014 30.4156 43.4456 30.1548 43.63C29.894 43.8145 29.5927 43.9338 29.2764 43.9779C28.96 44.0221 28.6376 43.9898 28.3363 43.8838C23.8113 42.2875 21 38.5 21 34C20.9998 31.1022 22.1431 28.3214 24.1815 26.2618C26.2199 24.2021 28.9886 23.03 31.8862 23H31.9987C34.8965 23.0113 37.6737 24.161 39.7315 26.2012C41.7892 28.2414 42.9627 31.0087 42.9988 33.9063C43.0062 34.7618 42.9148 35.6154 42.7262 36.45H42.7213ZM33.5 27.5C33.5 27.7967 33.412 28.0867 33.2472 28.3334C33.0824 28.58 32.8481 28.7723 32.574 28.8858C32.2999 28.9994 31.9983 29.0291 31.7074 28.9712C31.4164 28.9133 31.1491 28.7704 30.9393 28.5607C30.7296 28.3509 30.5867 28.0836 30.5288 27.7926C30.4709 27.5017 30.5006 27.2001 30.6142 26.926C30.7277 26.6519 30.92 26.4176 31.1666 26.2528C31.4133 26.088 31.7033 26 32 26C32.3978 26 32.7794 26.158 33.0607 26.4393C33.342 26.7207 33.5 27.1022 33.5 27.5ZM28 30.5C28 30.7967 27.912 31.0867 27.7472 31.3334C27.5824 31.58 27.3481 31.7723 27.074 31.8858C26.7999 31.9994 26.4983 32.0291 26.2074 31.9712C25.9164 31.9133 25.6491 31.7704 25.4393 31.5607C25.2296 31.3509 25.0867 31.0836 25.0288 30.7926C24.9709 30.5017 25.0006 30.2001 25.1142 29.926C25.2277 29.6519 25.42 29.4176 25.6666 29.2528C25.9133 29.088 26.2033 29 26.5 29C26.8978 29 27.2794 29.158 27.5607 29.4393C27.842 29.7207 28 30.1022 28 30.5ZM28 37.5C28 37.7967 27.912 38.0867 27.7472 38.3334C27.5824 38.58 27.3481 38.7723 27.074 38.8858C26.7999 38.9994 26.4983 39.0291 26.2074 38.9712C25.9164 38.9133 25.6491 38.7704 25.4393 38.5607C25.2296 38.3509 25.0867 38.0836 25.0288 37.7926C24.9709 37.5017 25.0006 37.2001 25.1142 36.926C25.2277 36.6519 25.42 36.4176 25.6666 36.2528C25.9133 36.088 26.2033 36 26.5 36C26.8978 36 27.2794 36.158 27.5607 36.4393C27.842 36.7207 28 37.1022 28 37.5ZM39 30.5C39 30.7967 38.912 31.0867 38.7472 31.3334C38.5824 31.58 38.3481 31.7723 38.074 31.8858C37.7999 31.9994 37.4983 32.0291 37.2074 31.9712C36.9164 31.9133 36.6491 31.7704 36.4393 31.5607C36.2296 31.3509 36.0867 31.0836 36.0288 30.7926C35.9709 30.5017 36.0007 30.2001 36.1142 29.926C36.2277 29.6519 36.42 29.4176 36.6666 29.2528C36.9133 29.088 37.2033 29 37.5 29C37.8978 29 38.2794 29.158 38.5607 29.4393C38.842 29.7207 39 30.1022 39 30.5Z" fill="white"/>
<defs>
<radialGradient id="paint0_radial_46_8754" cx="0" cy="0" r="1" gradientUnits="userSpaceOnUse" gradientTransform="translate(32 -3167.5) scale(64)">
<stop stop-color="white" stop-opacity="0.3"/>
<stop offset="1" stop-color="white" stop-opacity="0"/>
</radialGradient>
</defs>
</svg>